<?xml version="1.0" encoding="utf-8"?>
<!-- Generator: Adobe Illustrator 24.2.0, SVG Export Plug-In . SVG Version: 6.00 Build 0)  -->
<svg version="1.1" id="Layer_1" xmlns="http://www.w3.org/2000/svg" xmlns:xlink="http://www.w3.org/1999/xlink" x="0px" y="0px"
	 width="128px" height="128px" viewBox="0 0 128 128" enable-background="new 0 0 128 128" xml:space="preserve">
<rect x="0" y="0" fill="#0054A6" width="128" height="128"/>
<g>
	<g>
		
			<rect x="39" y="66.6" transform="matrix(0.6248 -0.7808 0.7808 0.6248 -37.3373 61.8029)" fill="#F7931E" width="13.3" height="6.2"/>
	</g>
	<linearGradient id="SVGID_1_" gradientUnits="userSpaceOnUse" x1="22.3981" y1="63.9206" x2="105.6682" y2="63.9206">
		<stop  offset="0" style="stop-color:#F7BB23"/>
		<stop  offset="0.5593" style="stop-color:#F28128"/>
		<stop  offset="1" style="stop-color:#EE572C"/>
	</linearGradient>
	<path fill="url(#SVGID_1_)" d="M99,86.5c4.4-6.8,6.7-14.5,6.7-22.5c0-11-4.3-21.4-12.2-29.5c-8-8-18.4-12.4-29.5-12.4
		c-11,0-21.7,4.5-29.5,12.4C26.7,42.6,22.4,53,22.4,64c0,13.4,6.5,23.4,12,29.4c7.3,8.2,18.2,12.3,29.6,12.3
		c6.7,0,13.7-1.5,20.1-4.6L67.9,87c-7.2,1.1-14.4-1.2-19.9-6.7C43.8,75.9,41.3,70,41.3,64c0-6,2.4-11.7,6.7-16.1
		c4.4-4.4,10-6.8,16-6.8c6,0,11.7,2.4,16,6.7c4.3,4.4,6.7,10.1,6.7,16.1c0,3.4-0.7,6.8-1.9,9.8l13.4,14.3L99,86.5z"/>
	<linearGradient id="SVGID_2_" gradientUnits="userSpaceOnUse" x1="49.311" y1="84.9405" x2="109.8805" y2="84.9405">
		<stop  offset="0" style="stop-color:#F7977A"/>
		<stop  offset="7.105196e-02" style="stop-color:#F68D71"/>
		<stop  offset="0.5" style="stop-color:#F1563C"/>
		<stop  offset="0.745" style="stop-color:#DE3B34"/>
		<stop  offset="1" style="stop-color:#CE242C"/>
	</linearGradient>
	<polygon fill="url(#SVGID_2_)" points="108.6,95.5 101.1,88.4 84.7,73.8 76,65.9 74.8,64.9 74.5,64.9 49.3,64.9 94.6,105 
		109.9,105 109.9,96.7 	"/>
</g>
</svg>
