<?xml version="1.0" encoding="utf-8"?>
<!-- Generator: Adobe Illustrator 24.2.0, SVG Export Plug-In . SVG Version: 6.00 Build 0)  -->
<svg version="1.1" id="Layer_1" xmlns="http://www.w3.org/2000/svg" xmlns:xlink="http://www.w3.org/1999/xlink" x="0px" y="0px"
	 width="138px" height="44px" viewBox="0 0 138 44" enable-background="new 0 0 138 44" xml:space="preserve">
<g>
	<path fill="#0054A6" d="M48.7,26.6l1.5-2.7h1.6l8.1,3c0,0,1.7-1.4,1.7-1.6c0-0.3-0.9-6.3-0.9-6.3l-5.5-2.7l-6.6,1.1L47,20.6
		L48.7,26.6z"/>
	<polygon fill="#00B3BE" points="16.7,11.8 10.5,21 4.2,11.8 0,11.8 0,34.9 5.3,34.9 5.3,22.9 9,28.3 11.9,28.3 15.6,22.9 
		15.6,34.9 20.9,34.9 20.9,11.8 	"/>
	<polygon fill="#00B3BE" points="37.9,11.8 32.9,19.9 27.9,11.8 21.6,11.8 30.2,25.6 30.2,34.9 35.6,34.9 35.6,25.6 44.2,11.8 	"/>
	<path fill="#FFFFFF" d="M78.3,11.8h-8.8v23.1h5.4V28h3.4c5.2,0,7.9-4.1,7.9-8.1C86.3,15.9,83.5,11.8,78.3,11.8z M78.3,22.7h-3.4
		v-5.5h3.4c1.9,0,2.6,1.5,2.6,2.8C80.9,20.9,80.4,22.7,78.3,22.7z"/>
	<path fill="#FFFFFF" d="M101.1,26.5c2.8-1.2,4.5-3.8,4.5-7c0-3.9-2.7-7.8-7.9-7.8H89v23.1h5.3v-8.4l6.9,8.4h7L101.1,26.5z
		 M100.2,19.6c0,1.1-0.7,2.5-2.6,2.5h-3.4v-4.9h3.4C99.4,17.2,100.2,18.4,100.2,19.6z"/>
	<path fill="#FFFFFF" d="M127.6,15c-2.3-2.3-5.2-3.5-8.3-3.5c-3.1,0-6.1,1.3-8.3,3.5l0,0c-2.2,2.3-3.4,5.2-3.4,8.3s1.2,6.1,3.4,8.3
		c2.2,2.2,5.2,3.5,8.3,3.5c3.2,0,6.1-1.2,8.4-3.5c2.2-2.3,3.4-5.2,3.4-8.3C131,20.2,129.8,17.3,127.6,15z M119.3,29.8
		c-1.7,0-3.3-0.7-4.5-1.9c-1.2-1.2-1.9-2.8-1.9-4.5s0.7-3.3,1.9-4.6c1.2-1.2,2.8-1.9,4.5-1.9s3.3,0.7,4.5,1.9
		c1.2,1.2,1.9,2.8,1.9,4.6c0,1.7-0.7,3.3-1.9,4.5S120.9,29.8,119.3,29.8z"/>
	<g>
		
			<rect x="47.7" y="24.1" transform="matrix(0.6248 -0.7808 0.7808 0.6248 -0.868 48.1017)" fill="#F7931E" width="3.8" height="1.8"/>
	</g>
	<polygon fill="#4EB0BB" points="57.8,23.6 57.8,23.6 58.1,23.9 	"/>
	
		<linearGradient id="SVGID_1_" gradientUnits="userSpaceOnUse" x1="42.9988" y1="22.6" x2="66.5126" y2="22.6" gradientTransform="matrix(1 0 0 -1 0 46)">
		<stop  offset="0" style="stop-color:#F7BB23"/>
		<stop  offset="0.4314" style="stop-color:#F38E27"/>
		<stop  offset="1" style="stop-color:#EE572C"/>
	</linearGradient>
	<path fill="url(#SVGID_1_)" d="M64.6,29.7c1.2-1.9,1.9-4.1,1.9-6.3c0-3.1-1.2-6.1-3.4-8.3c-2.3-2.3-5.2-3.5-8.3-3.5
		s-6.1,1.3-8.3,3.5c-2.2,2.3-3.4,5.2-3.4,8.3c0,3.8,1.8,6.6,3.4,8.3c2.1,2.3,5.2,3.5,8.3,3.5c1.9,0,3.9-0.4,5.7-1.3l-4.5-4
		c-2,0.3-4.1-0.3-5.6-1.9c-1.2-1.2-1.9-2.9-1.9-4.6s0.7-3.3,1.9-4.5s2.8-1.9,4.5-1.9s3.3,0.7,4.5,1.9c1.2,1.2,1.9,2.9,1.9,4.6
		c0,1-0.2,1.9-0.5,2.8l3.8,4L64.6,29.7z"/>
	
		<linearGradient id="SVGID_2_" gradientUnits="userSpaceOnUse" x1="50.6" y1="16.75" x2="67.7" y2="16.75" gradientTransform="matrix(1 0 0 -1 0 46)">
		<stop  offset="0" style="stop-color:#F7977A"/>
		<stop  offset="7.105196e-02" style="stop-color:#F68D71"/>
		<stop  offset="0.5" style="stop-color:#F1563C"/>
		<stop  offset="0.745" style="stop-color:#DE3B34"/>
		<stop  offset="1" style="stop-color:#CE242C"/>
	</linearGradient>
	<polygon fill="url(#SVGID_2_)" points="67.3,32.2 65.2,30.2 60.6,26.1 58.1,23.9 57.8,23.6 57.7,23.6 50.6,23.6 63.4,34.9 
		67.7,34.9 67.7,32.6 	"/>
</g>
</svg>
