<?xml version="1.0" encoding="utf-8"?>
<!-- Generator: Adobe Illustrator 24.2.0, SVG Export Plug-In . SVG Version: 6.00 Build 0)  -->
<svg version="1.1" id="Layer_1" xmlns="http://www.w3.org/2000/svg" xmlns:xlink="http://www.w3.org/1999/xlink" x="0px" y="0px"
	 width="138px" height="44px" viewBox="0 0 138 44" enable-background="new 0 0 138 44" xml:space="preserve">
<g>
	<path fill="#00B3BE" d="M48.7,25.3l1.5-2.7h1.6l8.1,3c0,0,1.7-1.4,1.7-1.6c0-0.3-0.9-6.3-0.9-6.3l-5.5-2.7L48.7,16L47,19.3
		L48.7,25.3z"/>
	<polygon fill="#1C2954" points="16.7,10.4 10.5,19.6 4.2,10.4 0,10.4 0,33.6 5.3,33.6 5.3,21.6 9,27 11.9,27 15.6,21.6 15.6,33.6 
		20.9,33.6 20.9,10.4 	"/>
	<polygon fill="#1C2954" points="37.9,10.5 32.9,18.5 27.9,10.5 21.6,10.5 30.2,24.3 30.2,33.6 35.6,33.6 35.6,24.3 44.2,10.5 	"/>
	<path fill="#1C2954" d="M78.3,10.4h-8.8v23.1h5.4v-6.9h3.4c5.2,0,7.9-4.1,7.9-8.1C86.3,14.5,83.5,10.4,78.3,10.4z M78.3,21.3h-3.4
		v-5.5h3.4c1.9,0,2.6,1.5,2.6,2.8C80.9,19.6,80.4,21.3,78.3,21.3z"/>
	<path fill="#1C2954" d="M101.1,25.2c2.8-1.2,4.5-3.8,4.5-7c0-3.9-2.7-7.8-7.9-7.8h-8.7v23.1h5.3v-8.4l6.9,8.4h7L101.1,25.2z
		 M100.2,18.2c0,1.1-0.7,2.5-2.6,2.5h-3.4v-4.9h3.4C99.4,15.8,100.2,17,100.2,18.2z"/>
	<path fill="#1C2954" d="M127.6,13.7c-2.3-2.3-5.2-3.5-8.3-3.5c-3.1,0-6.1,1.3-8.3,3.5l0,0c-2.2,2.3-3.4,5.2-3.4,8.3
		s1.2,6.1,3.4,8.3c2.2,2.2,5.2,3.5,8.3,3.5c3.2,0,6.1-1.2,8.4-3.5c2.2-2.3,3.4-5.2,3.4-8.3C131,18.9,129.8,15.9,127.6,13.7z
		 M119.3,28.5c-1.7,0-3.3-0.7-4.5-1.9c-1.2-1.2-1.9-2.8-1.9-4.5s0.7-3.3,1.9-4.6c1.2-1.2,2.8-1.9,4.5-1.9c1.7,0,3.3,0.7,4.5,1.9
		c1.2,1.2,1.9,2.8,1.9,4.6c0,1.7-0.7,3.3-1.9,4.5C122.6,27.8,120.9,28.5,119.3,28.5z"/>
	<g>
		
			<rect x="47.7" y="22.7" transform="matrix(0.6248 -0.7808 0.7808 0.6248 0.152 47.5585)" fill="#F7931E" width="3.8" height="1.8"/>
	</g>
	<polygon fill="#4EB0BB" points="57.8,22.3 57.8,22.3 58.1,22.5 	"/>
	<path fill="#1C2954" d="M64.6,28.3c1.2-1.9,1.9-4.1,1.9-6.3c0-3.1-1.2-6.1-3.4-8.3c-2.3-2.3-5.2-3.5-8.3-3.5
		c-3.1,0-6.1,1.3-8.3,3.5C44.2,15.9,43,18.9,43,22c0,3.8,1.8,6.6,3.4,8.3c2.1,2.3,5.2,3.5,8.3,3.5c1.9,0,3.9-0.4,5.7-1.3l-4.5-4
		c-2,0.3-4.1-0.3-5.6-1.9c-1.2-1.2-1.9-2.9-1.9-4.6c0-1.7,0.7-3.3,1.9-4.5c1.2-1.2,2.8-1.9,4.5-1.9c1.7,0,3.3,0.7,4.5,1.9
		c1.2,1.2,1.9,2.9,1.9,4.6c0,1-0.2,1.9-0.5,2.8l3.8,4L64.6,28.3z"/>
	<linearGradient id="SVGID_1_" gradientUnits="userSpaceOnUse" x1="50.5984" y1="27.9102" x2="67.702" y2="27.9102">
		<stop  offset="0" style="stop-color:#F7977A"/>
		<stop  offset="7.105196e-02" style="stop-color:#F68D71"/>
		<stop  offset="0.5" style="stop-color:#F1563C"/>
		<stop  offset="0.745" style="stop-color:#DE3B34"/>
		<stop  offset="1" style="stop-color:#CE242C"/>
	</linearGradient>
	<polygon fill="url(#SVGID_1_)" points="67.3,30.9 65.2,28.9 60.6,24.8 58.1,22.5 57.8,22.3 57.7,22.3 50.6,22.3 63.4,33.6 
		67.7,33.6 67.7,31.2 	"/>
</g>
</svg>
