<?xml version="1.0" encoding="utf-8"?>
<!-- Generator: Adobe Illustrator 24.2.0, SVG Export Plug-In . SVG Version: 6.00 Build 0)  -->
<svg version="1.1" id="Layer_1" xmlns="http://www.w3.org/2000/svg" xmlns:xlink="http://www.w3.org/1999/xlink" x="0px" y="0px"
	 width="138px" height="44px" viewBox="0 0 138 44" enable-background="new 0 0 138 44" xml:space="preserve">
<g>
	<path fill="#0054A6" d="M49,26l1.5-2.7h1.6l8.1,3c0,0,1.7-1.4,1.7-1.6s-0.9-6.3-0.9-6.3l-5.5-2.7L49,16.7L47.3,20L49,26z"/>
	<polygon fill="#00B3BE" points="16.9,11.1 10.6,20.3 4.3,11.1 0.1,11.1 0.1,34.4 5.5,34.4 5.5,22.3 9.1,27.8 12.1,27.8 15.7,22.3 
		15.7,34.4 21.1,34.4 21.1,11.1 	"/>
	<polygon fill="#00B3BE" points="38.2,11.2 33.1,19.3 28.1,11.2 21.8,11.2 30.4,25 30.4,34.4 35.8,34.4 35.8,25 44.5,11.2 	"/>
	<path fill="#FFFFFF" d="M78.8,11.1H70v23.2h5.4v-6.9h3.4c5.2,0,7.9-4.1,7.9-8.1C86.7,15.2,84,11.1,78.8,11.1z M78.8,22.1h-3.4v-5.5
		h3.4c1.9,0,2.6,1.5,2.6,2.8C81.4,20.3,80.8,22.1,78.8,22.1z"/>
	<path fill="#FFFFFF" d="M101.6,25.9c2.8-1.2,4.5-3.8,4.5-7c0-3.9-2.7-7.8-8-7.8h-8.8v23.2h5.3V26l7,8.4h7L101.6,25.9z M100.7,19
		c0,1.1-0.7,2.5-2.6,2.5h-3.4v-4.9h3.4C99.9,16.5,100.7,17.7,100.7,19z"/>
	<path fill="#FFFFFF" d="M128.2,14.4c-2.3-2.3-5.2-3.5-8.4-3.5c-3.1,0-6.2,1.3-8.4,3.5l0,0c-2.2,2.3-3.4,5.3-3.4,8.4
		s1.2,6.1,3.4,8.4c2.2,2.2,5.2,3.5,8.4,3.5c3.2,0,6.2-1.2,8.4-3.5c2.2-2.3,3.4-5.3,3.4-8.4C131.7,19.6,130.5,16.7,128.2,14.4z
		 M119.9,29.2c-1.7,0-3.3-0.7-4.5-1.9c-1.2-1.2-1.9-2.8-1.9-4.6c0-1.7,0.7-3.3,1.9-4.6c1.2-1.2,2.8-1.9,4.5-1.9
		c1.7,0,3.3,0.7,4.6,1.9c1.2,1.2,1.9,2.9,1.9,4.6c0,1.7-0.7,3.3-1.9,4.6C123.2,28.5,121.5,29.2,119.9,29.2z"/>
	<g>
		
			<rect x="48" y="23.5" transform="matrix(0.6248 -0.7808 0.7808 0.6248 -0.3145 48.0778)" fill="#F7931E" width="3.8" height="1.8"/>
	</g>
	<polygon fill="#4EB0BB" points="58.1,23 58.1,23 58.5,23.3 	"/>
	<linearGradient id="SVGID_1_" gradientUnits="userSpaceOnUse" x1="43.279" y1="22.7129" x2="66.889" y2="22.7129">
		<stop  offset="0" style="stop-color:#F7BB23"/>
		<stop  offset="0.4314" style="stop-color:#F38E27"/>
		<stop  offset="1" style="stop-color:#EE572C"/>
	</linearGradient>
	<path fill="url(#SVGID_1_)" d="M65,29.1c1.2-1.9,1.9-4.1,1.9-6.4c0-3.1-1.2-6.1-3.4-8.4c-2.3-2.3-5.2-3.5-8.4-3.5
		c-3.1,0-6.2,1.3-8.4,3.5c-2.2,2.3-3.4,5.3-3.4,8.4c0,3.8,1.9,6.6,3.4,8.3c2.1,2.3,5.2,3.5,8.4,3.5c1.9,0,3.9-0.4,5.7-1.3l-4.6-4
		c-2,0.3-4.1-0.3-5.6-1.9c-1.2-1.2-1.9-2.9-1.9-4.6c0-1.7,0.7-3.3,1.9-4.6c1.2-1.2,2.8-1.9,4.5-1.9c1.7,0,3.3,0.7,4.5,1.9
		c1.2,1.3,1.9,2.9,1.9,4.6c0,1-0.2,1.9-0.5,2.8l3.8,4.1L65,29.1z"/>
	<linearGradient id="SVGID_2_" gradientUnits="userSpaceOnUse" x1="50.9098" y1="28.6728" x2="68.0834" y2="28.6728">
		<stop  offset="0" style="stop-color:#F7977A"/>
		<stop  offset="7.105196e-02" style="stop-color:#F68D71"/>
		<stop  offset="0.5" style="stop-color:#F1563C"/>
		<stop  offset="0.745" style="stop-color:#DE3B34"/>
		<stop  offset="1" style="stop-color:#CE242C"/>
	</linearGradient>
	<polygon fill="url(#SVGID_2_)" points="67.7,31.7 65.6,29.7 60.9,25.5 58.5,23.3 58.1,23 58,23 50.9,23 63.7,34.4 68.1,34.4 
		68.1,32 	"/>
</g>
</svg>
