<?xml version="1.0" encoding="utf-8"?>
<!-- Generator: Adobe Illustrator 24.2.0, SVG Export Plug-In . SVG Version: 6.00 Build 0)  -->
<svg version="1.0" id="Layer_1" xmlns="http://www.w3.org/2000/svg" xmlns:xlink="http://www.w3.org/1999/xlink" x="0px" y="0px"
	 viewBox="0 0 1600 650" style="enable-background:new 0 0 1600 650;" xml:space="preserve">
<style type="text/css">
	.st0{fill:url(#SVGID_1_);}
	.st1{fill:#1D6EB2;}
	.st2{fill:#F7931E;}
	.st3{fill:#4EB0BB;}
	.st4{fill:url(#SVGID_2_);}
	.st5{fill:url(#SVGID_3_);}
	.st6{fill:#FF9C61;}
	.st7{opacity:0.22;fill:#C1544E;}
	.st8{opacity:0.33;fill:#C1544E;}
	.st9{opacity:0.64;fill:#C1544E;}
	.st10{fill:#F67E4B;}
	.st11{fill:none;stroke:#BE3F3D;stroke-width:1.4818;stroke-miterlimit:10;}
	.st12{opacity:0.48;fill:#C1544E;}
	.st13{opacity:0.15;fill:#FFF2DD;}
	.st14{fill:none;stroke:#DC5F5A;stroke-width:2.1621;stroke-miterlimit:10;}
	.st15{opacity:0.33;fill:#FFFFFF;}
	.st16{fill:#0054A6;}
	.st17{fill:#03508E;}
	.st18{opacity:0.46;fill:#193951;}
	.st19{fill:#FFFFFF;}
	.st20{font-family:'PlusJakartaSans-ExtraBold';}
	.st21{font-size:35.1011px;}
	.st22{fill:url(#SVGID_4_);}
	.st23{fill:url(#SVGID_5_);}
	.st24{font-family:'Rajdhani-Medium';}
	.st25{font-size:30.8762px;}
	.st26{font-size:12px;}
	.st27{font-size:19px;}
	.st28{letter-spacing:3;}
	.st29{opacity:0.33;fill:#4B2121;}
	.st30{fill:none;stroke:#BE3F3D;stroke-width:1.4006;stroke-miterlimit:10;}
	.st31{fill:none;stroke:#B13B37;stroke-width:1.4006;stroke-miterlimit:10;}
	.st32{opacity:0.33;fill:#602C2B;}
	.st33{fill:none;stroke:#32344F;stroke-width:3.2257;stroke-miterlimit:10;}
	.st34{fill:#0B406B;}
	.st35{fill:#2292C4;}
	.st36{fill:none;stroke:#FFFFF6;stroke-width:0.7459;stroke-miterlimit:10;}
	.st37{fill:#064E7F;}
	.st38{fill:#00B8CA;}
	.st39{fill:#094F68;}
	.st40{opacity:0.48;fill:#EC554B;}
	.st41{opacity:0.32;fill:#7C332F;}
	.st42{opacity:0.21;fill:#C1544E;}
	.st43{fill:#00A7AF;}
	.st44{fill:#128396;}
	.st45{fill:#FFFFF6;}
	.st46{fill:#006D87;}
</style>
<linearGradient id="SVGID_1_" gradientUnits="userSpaceOnUse" x1="0" y1="325" x2="1600" y2="325">
	<stop  offset="0" style="stop-color:#22B7C7"/>
	<stop  offset="1" style="stop-color:#0054A6"/>
</linearGradient>
<rect class="st0" width="1600" height="650"/>
<g>
	<path class="st1" d="M1005.89,372.45l29.07-51.47h30.88l152.59,56.62c0,0,32.7-25.73,32.7-30.88c0-5.15-16.35-118.38-16.35-118.38
		l-103.55-51.47l-125.34,20.59l-32.7,61.76L1005.89,372.45z"/>
	<g>
		
			<rect x="986.92" y="324.86" transform="matrix(0.6248 -0.7808 0.7808 0.6248 116.9731 926.3901)" class="st2" width="70.97" height="33.24"/>
	</g>
	<polygon class="st3" points="1178.36,315.66 1178.28,315.66 1184.33,321.08 	"/>
	<radialGradient id="SVGID_2_" cx="1120.6671" cy="310.337" r="222.8662" gradientUnits="userSpaceOnUse">
		<stop  offset="0" style="stop-color:#FFFFFF"/>
		<stop  offset="0.2872" style="stop-color:#F1FAFF"/>
		<stop  offset="0.8289" style="stop-color:#CCEEFF"/>
		<stop  offset="1" style="stop-color:#BFEAFF"/>
	</radialGradient>
	<path class="st4" d="M1307.37,430.82c23.39-36.24,35.69-77.37,35.69-120.04c0-58.52-22.94-114.5-64.95-157.72
		C1235.55,110.5,1179.58,87,1120.39,87c-58.63,0-115.94,24.16-157.5,66.28c-41.67,43-64.62,98.98-64.62,157.5
		c0,71.6,34.91,124.91,64.06,156.95c39.24,43.56,97.42,65.95,157.94,65.95c36.02,0,73.04-7.98,107.18-24.38l-85.9-75.92
		c-38.24,5.98-76.92-6.32-106.4-35.8c-22.83-23.28-35.8-54.86-35.8-86.79c0-31.92,12.64-62.51,35.58-85.9
		c23.39-23.39,53.65-36.24,85.46-36.24c32.25,0,62.51,12.86,85.23,36.02c23.05,23.61,35.8,54.2,35.8,86.12
		c0,18.14-3.72,36.38-10.26,52.25l71.44,76.33L1307.37,430.82z"/>
	<linearGradient id="SVGID_3_" gradientUnits="userSpaceOnUse" x1="1042.0283" y1="422.6153" x2="1365.5616" y2="422.6153">
		<stop  offset="0" style="stop-color:#F7977A"/>
		<stop  offset="0.0711" style="stop-color:#F68D71"/>
		<stop  offset="0.5" style="stop-color:#F1563C"/>
		<stop  offset="0.745" style="stop-color:#DE3B34"/>
		<stop  offset="1" style="stop-color:#CE242C"/>
	</linearGradient>
	<polygon class="st5" points="1358.53,478.85 1318.59,441.35 1231.16,363.03 1184.33,321.08 1178.28,315.66 1176.35,315.66 
		1042.03,315.66 1283.77,529.57 1365.56,529.57 1365.56,485.46 	"/>
</g>
<g>
	<g>
		<path class="st6" d="M1019.91,417.66c0,0,0.3-17.43,2.07-24.88c1.77-7.46,2.25-23.54,2.67-29.67c0.42-6.13-3.76-11.51-7.98-10.77
			c-4.22,0.74-18.2,6.37-14.79,37.06c-11.42,20.04-9.74,25.98-9.74,25.98l-4.04,13.25C988.11,428.63,1012.17,430.25,1019.91,417.66z
			"/>
		<path class="st7" d="M1024.66,363.11c-0.19,2.82-0.4,7.75-0.74,12.98c-4-3.62-3.56-9.68-3.03-13.24c0.33-2.21,2.05-3.45,3.3-4.08
			C1024.58,360.11,1024.76,361.59,1024.66,363.11z"/>
		<path class="st8" d="M1024.28,359.12c0.32,1.25,0.48,2.6,0.38,3.99c-0.42,6.13-0.9,22.21-2.67,29.67
			c-1.77,7.46-2.07,24.88-2.07,24.88c-2.37,3.86-6.27,6.38-10.55,8.02c1.43-9.47,4.02-26.94,4.68-33.55
			C1014.82,384.26,1022.11,364.8,1024.28,359.12z"/>
		<path class="st9" d="M1007.42,413.41c3.11-3.98,10.14-11.85,13.75-15.85c-1.05,8.33-1.26,20.1-1.26,20.1
			c-7.74,12.59-31.8,10.97-31.8,10.97l3.68-12.06C994.82,415.81,999.92,414.67,1007.42,413.41z"/>
		<path class="st10" d="M977.66,424.92c0,0,4.4-17.83,5.01-23c0.61-5.17,2.45-24.12,4.21-30.81c1.77-6.69-3.36-13.43-11.25-7.54
			c-7.89,5.89-13.31,14.66-10.51,27.51c-11.04,19.27-8.65,22.85-8.65,22.85l-12.44,10.16C944.03,424.09,970.07,431.81,977.66,424.92
			z"/>
		<path class="st7" d="M986.88,371.11c-0.6,2.27-1.21,5.94-1.77,10.01c-1.06-1.82-2.16-4.24-2.01-6.28
			c0.18-2.45,2.48-5.12,4.12-6.74C987.25,369.08,987.15,370.09,986.88,371.11z"/>
		<path class="st6" d="M817.08,478.02c0,0,48.5-13.46,83.59-1.52c35.09,11.94,48.44,11.1,57.6,6.01
			c57.46,12.03,67.59,9.12,67.59,9.12s45.09-26.3,51.74-30.85c4.94-3.37,13.26-8.97,17.22-11.64c1.37-0.92,1.9-2.69,1.22-4.21
			c-3-6.77-13.52-22.21-41.29,1.94c-14.8,3.47-28.58,6.96-34.23,14.57l-9.65-4.65c0,0,12.26-5.02,17.4-11.1
			c5.13-6.08,25.73-40.61,25.73-40.61s20.68-31.37,19.64-36.52c-1.04-5.15-8.35-9.48-13.87-6.86c-5.52,2.62-19.54,12.01-25.64,25.32
			c-13.74,13.78-17.89,24.96-19.45,30.56c-20.43,7.01-30.08,0.31-42.63,11.2c-40,0.52-120.05,6.65-120.05,6.65L817.08,478.02z"/>
		<path class="st7" d="M1083.26,452.16c4.06-3.61,8.89-2.89,10.72-2.44c-3.79,2.55-10.3,6.93-14.93,10.08
			C1079.09,458.31,1079.67,455.36,1083.26,452.16z"/>
		<line class="st11" x1="958.27" y1="482.52" x2="940.94" y2="479.07"/>
		<path class="st8" d="M969.99,450.38c16.84-1.93,16.84-1.93,16.84-1.93s13.71,0.37,25.25,7.83c-0.76,0.34-1.22,0.53-1.22,0.53
			l5.41,2.6l0,0l0,0l4.25,2.04c5.65-7.61,19.43-11.09,34.23-14.57c23.34-20.3,34.49-12.64,39.24-5.65
			c-7.39-1.14-24.49-1.9-37.82,11.85c-25.44,5.38-37.37,17.91-37.37,17.91S982.18,453.84,969.99,450.38z"/>
		<path class="st8" d="M1028.27,445.7c-4.28,5.07-13.52,9.41-16.47,10.7c-7.88-4.62-16.58-6.82-16.58-6.82s18.8-6.52,28.55-12.35
			c5.5-3.29,16.49-14.42,25.03-23.5C1042.33,424.39,1031.75,441.58,1028.27,445.7z"/>
		<path class="st8" d="M1016.46,421.63c0,0-29.38,9.34-34.09,6.31c-1.31-0.84-2.44-2.18-3.4-3.67c9.68-4.33,19.16-1.01,35.72-6.69
			c1.56-5.6,5.71-16.78,19.45-30.56c6.1-13.31,20.12-22.7,25.64-25.32c1.17-0.55,2.41-0.78,3.66-0.77
			c-0.29,0.27-26.87,24.85-23.87,31.01c3.41,4.28,3.41,4.28,3.41,4.28s-11.07-2.74-14.93,3.35
			C1024.18,405.67,1016.46,421.63,1016.46,421.63z"/>
		<path class="st6" d="M728.04,476.25c0,0,43.01-52.03,62.98-67.7c19.97-15.67,66.03-46.98,118.76-3.85
			c29.47,14.45,29.47,14.45,29.47,14.45s36.71-2.83,48.86,9.48c12.15,12.31,5.46,22.97-4.75,25.96
			c-10.21,2.99-48.42,1.23-48.42,1.23s-27.47-7.31-48.4-2.85c-20.92,4.46-60.74,15.42-79.76,42.31
			c-19.02,26.89-24.27,36.13-24.27,36.13L728.04,476.25z"/>
		<path class="st12" d="M983.37,434.29c-1.39-3.7-5.31-5.86-9.15-4.93c-4.82,1.17-10.1,4.6-8.15,14.29
			c3.19,12.51,18.33,11.19,20.96,9.47C987.18,446,985.12,438.94,983.37,434.29z"/>
		<path class="st13" d="M972.21,451.96c-2.76-1.6-5.1-4.21-6.14-8.32c-1.28-6.35,0.56-10,3.33-12.1
			C971.49,434.9,975.15,442.59,972.21,451.96z"/>
		<path class="st14" d="M1010.87,456.8c0,0-10.93-7.22-19.77-7.71"/>
		<path class="st11" d="M1054.76,446.89c0,0,0.64,5.89,4.09,12.9"/>
		<path class="st11" d="M1020.52,461.45c0,0-3.05,8.65-1.28,12.46"/>
		<path class="st15" d="M909.78,404.7c29.47,14.45,29.47,14.45,29.47,14.45s36.71-2.83,48.86,9.48c3.7,3.74,5.64,7.33,6.28,10.6
			c-9.41-3.89-26.19-9.38-43.22-7.91c-25.74,2.23-54.02-15.7-54.02-15.7s-55.29-37.16-92.21-16.99
			C828.57,383.73,866.98,369.69,909.78,404.7z"/>
		<path class="st8" d="M782.51,531.41l-25.68-26.01c5.8-7.12,14.8-17.01,27.24-27.48c24.08-20.26,55.24-36.04,88.16-21.47
			c32.92,14.57,64.53,29.22,64.53,29.22l0,0c-8.62-0.94-20.1-3.72-36.1-9.17c-24.93-8.48-56.63-4.15-72.89-0.92
			c-8.11,5.37-15.44,11.85-20.99,19.7C787.76,522.17,782.51,531.41,782.51,531.41z"/>
		<path class="st11" d="M1001.9,389.4c0,0,3.65,0.57,8.08,0.45"/>
		<path class="st11" d="M965.11,391.08c0,0,4.65,1.68,8.27,0.62"/>
		<path class="st11" d="M1034.13,387.03c1.67,2.8,3.13,6.12,8.84,9.2"/>
		<path class="st11" d="M1013.06,418.12c0,0,3.12,6.47,5.16,8.74"/>
		<path class="st11" d="M894.59,451.82c0,0,15.29,0.01,33.35,2.45c18.06,2.43,55.14,0.41,55.14,0.41s12.46-3.46,11.48-14.38
			c-0.98-10.92-17.6-17.84-17.6-17.84s-18.22-3.67-26.58-3.56"/>
	</g>
	<polygon class="st16" points="727.97,455.71 806.01,532.04 645.84,707.85 464,669 	"/>
	<polygon class="st17" points="780.65,559.99 700.38,477.79 727.97,455.71 806.01,532.04 	"/>
	<polygon class="st18" points="767.1,493.98 806.01,532.04 645.84,707.85 606.48,648.56 	"/>
	<path class="st18" d="M722.95,482.72c0.48,4.1,4.19,7.05,8.29,6.57c4.1-0.48,7.05-4.19,6.57-8.29c-0.48-4.1-4.19-7.05-8.29-6.57
		C725.41,474.9,722.47,478.62,722.95,482.72z"/>
</g>
<text transform="matrix(1 0 0 1 189.7173 307.5752)"><tspan x="0" y="0" class="st19 st20 st21">MENGHUBUNGKAN RUANG</tspan><tspan x="0" y="48.92" class="st19 st20 st21">UNTUK PERTUMBUHAN BISNISMU</tspan></text>
<g>
	<path class="st16" d="M287.38,220.01l3.06-5.41h3.25l16.04,5.95c0,0,3.44-2.71,3.44-3.25c0-0.54-1.72-12.45-1.72-12.45l-10.89-5.41
		l-13.18,2.16l-3.44,6.49L287.38,220.01z"/>
	<polygon class="st19" points="223.77,190.53 211.36,208.8 198.96,190.53 190.55,190.53 190.55,236.53 201.18,236.53 201.18,212.73 
		208.41,223.48 214.26,223.48 221.49,212.73 221.49,236.53 232.06,236.53 232.06,190.53 	"/>
	<polygon class="st19" points="265.93,190.59 255.95,206.64 245.97,190.59 233.44,190.59 250.61,218.04 250.61,236.53 
		261.29,236.53 261.29,218.04 278.53,190.59 	"/>
	<path class="st16" d="M346.37,190.53h-17.45v46h10.68v-13.76h6.76c10.33,0,15.73-8.09,15.73-16.09
		C362.1,198.66,356.7,190.53,346.37,190.53z M346.37,212.21h-6.76v-10.99h6.76c3.81,0,5.17,2.98,5.17,5.52
		C351.54,208.77,350.45,212.21,346.37,212.21z"/>
	<path class="st16" d="M391.53,219.88c5.48-2.35,8.96-7.55,8.96-13.85c0-7.7-5.43-15.5-15.8-15.5H367.3v46h10.57V219.9l13.82,16.64
		h13.83L391.53,219.88z M389.86,206.03c0,2.25-1.35,4.87-5.17,4.87h-6.82v-9.69h6.82C388.26,201.22,389.86,203.64,389.86,206.03z"/>
	<path class="st16" d="M444.33,196.95c-4.48-4.48-10.37-6.94-16.59-6.94c-6.16,0-12.19,2.53-16.54,6.95l-0.01,0.01
		c-4.38,4.52-6.8,10.41-6.8,16.56c0,6.16,2.41,12.04,6.8,16.56c4.29,4.43,10.33,6.97,16.55,6.97c6.29,0,12.18-2.47,16.61-6.97
		c4.38-4.52,6.8-10.41,6.8-16.56C451.16,207.38,448.74,201.5,444.33,196.95z M427.74,226.38c-3.3,0-6.55-1.38-8.92-3.8
		c-2.42-2.42-3.75-5.63-3.75-9.04s1.33-6.62,3.76-9.06c2.36-2.41,5.6-3.79,8.91-3.79c3.32,0,6.61,1.38,9.03,3.8
		c2.38,2.44,3.7,5.66,3.7,9.05c0,3.4-1.32,6.62-3.69,9.04C434.37,224.99,431.07,226.38,427.74,226.38z"/>
	<g>
		
			<rect x="285.39" y="215.01" transform="matrix(0.6248 -0.7808 0.7808 0.6248 -60.7641 307.0596)" class="st2" width="7.46" height="3.5"/>
	</g>
	<polygon class="st3" points="305.51,214.04 305.51,214.04 306.14,214.61 	"/>
	<linearGradient id="SVGID_4_" gradientUnits="userSpaceOnUse" x1="276.0667" y1="213.4812" x2="322.831" y2="213.4812">
		<stop  offset="0" style="stop-color:#F7BB23"/>
		<stop  offset="0.4314" style="stop-color:#F38E27"/>
		<stop  offset="1" style="stop-color:#EE572C"/>
	</linearGradient>
	<path class="st22" d="M319.08,226.15c2.46-3.81,3.75-8.13,3.75-12.62c0-6.15-2.41-12.04-6.83-16.58
		c-4.47-4.47-10.36-6.95-16.58-6.95c-6.16,0-12.19,2.54-16.56,6.97c-4.38,4.52-6.79,10.41-6.79,16.56c0,7.53,3.67,13.13,6.74,16.5
		c4.13,4.58,10.24,6.93,16.61,6.93c3.79,0,7.68-0.84,11.27-2.56l-9.03-7.98c-4.02,0.63-8.09-0.66-11.19-3.76
		c-2.4-2.45-3.76-5.77-3.76-9.12c0-3.36,1.33-6.57,3.74-9.03c2.46-2.46,5.64-3.81,8.98-3.81c3.39,0,6.57,1.35,8.96,3.79
		c2.42,2.48,3.76,5.7,3.76,9.05c0,1.91-0.39,3.82-1.08,5.49l7.51,8.03L319.08,226.15z"/>
	<linearGradient id="SVGID_5_" gradientUnits="userSpaceOnUse" x1="291.1809" y1="225.2859" x2="325.1966" y2="225.2859">
		<stop  offset="0" style="stop-color:#F7977A"/>
		<stop  offset="0.0711" style="stop-color:#F68D71"/>
		<stop  offset="0.5" style="stop-color:#F1563C"/>
		<stop  offset="0.745" style="stop-color:#DE3B34"/>
		<stop  offset="1" style="stop-color:#CE242C"/>
	</linearGradient>
	<polygon class="st23" points="324.46,231.2 320.26,227.26 311.07,219.02 306.14,214.61 305.51,214.04 305.3,214.04 291.18,214.04 
		316.6,236.53 325.2,236.53 325.2,231.89 	"/>
</g>
<path class="st16" d="M628.87,436H210.56c-13.56,0-24.56-10.99-24.56-24.56v0c0-13.56,10.99-24.56,24.56-24.56h418.31
	c13.56,0,24.56,10.99,24.56,24.56v0C653.42,425.01,642.43,436,628.87,436z"/>
<text transform="matrix(1 0 0 1 218.9229 419.5039)" class="st19 st24 st25">solusi sewa properti yang aman</text>
<text transform="matrix(1 0 0 1 456.7539 231.8916)" class="st19 st24 st26">v.1.0</text>
<text transform="matrix(1 0 0 1 191.7539 169.0103)" class="st16 st20 st27 st28">segera hadir...</text>
<g>
	<path class="st6" d="M1245.84,264.09c0,0,15.07,22.22,30.47,24.54c15.4,2.32,26.72-2.16,36.21-7
		c138.41-35.89,138.41-35.89,138.41-35.89l-63.99-94.36c0,0-60.53,34.66-87.74,36.1c-27.22,1.44-64.87-20.37-82.9-30.48
		c-18.03-10.11-26.62-16.52-42.68-8.82c-16.06,7.7-57.3,26.09-62.74,32.97c-5.44,6.88-29.24,44.73-29.24,44.73
		s0.55,17.28,7.49,15.76c6.95-1.52,11.59-4.86,11.59-4.86s-3.52,9.69-2.22,18.28c1.3,8.6,8.71,19.53,17.36,17.38
		c8.65-2.14,14.68-12.08,13.18-32.34c5.37,0.08,5.37,0.08,5.37,0.08s-0.59,17.95,0.3,23.19c0.9,5.24,6.77,22.53,13.39,26.02
		c6.62,3.49,11.08-3.26,13.1-10.48c2.02-7.22-2.21-17.38-2.21-17.38l5.71-19.03l16.43,3.05c0,0-6.58,23.24-8.12,29.6
		c-1.54,6.36,4.29,17.3,0.94,26.49c3.24,7.91,16.64,4.14,20.46-5.9c3.83-10.04,2.19-16.38,2.19-16.38s8.6-8.49,7.72-12.15
		c11.02-11.2,11.02-11.2,11.02-11.2L1245.84,264.09z"/>
	<path class="st29" d="M1180.2,269.25c-2.1,5.04,10.97,18.2,13.71,27.73c0.19-0.4,0.38-0.81,0.54-1.23
		c3.83-10.04,2.19-16.38,2.19-16.38s8.6-8.49,7.72-12.15c11.02-11.2,11.02-11.2,11.02-11.2l14.76,3.91l-4.42-9.38l-37.3,1.81
		C1188.43,252.37,1182.66,263.34,1180.2,269.25z"/>
	<path class="st29" d="M1129.93,212.38c0,0,1.54-6.36-5.99-16.68c2.3-2.09,11.71,9.42,11.71,9.42s7.78-0.29,16.04-5.36
		c7.17-4.33,7.17-4.33,7.17-4.33s-6.06-8.16-2.84-18.3c2.32,14.4,6.39,19.62,13.17,27.26
		C1175.96,212.02,1129.93,212.38,1129.93,212.38z"/>
	<path class="st30" d="M1174.16,203.88c0,0-2.75-19.74,3.01-36.35"/>
	<path class="st29" d="M1138.15,242.84l1.72,14.93c0,0,15.76,13.1,20.35,24.17c0.39-0.98,0.72-2,1.01-3.02
		c2.02-7.22-2.21-17.38-2.21-17.38l5.71-19.03l9.33,1.73c1.08-3.9,1.77-6.39,1.77-6.39S1152.19,237.83,1138.15,242.84z"/>
	<path class="st31" d="M1159.01,261.54c0,0-5.39-7.11-15.07-6.54"/>
	<path class="st15" d="M1318.96,271.95c-49.27,24.63-52.33-8.02-52.33-8.02l-28.16-6l-0.75,4.02l8.12,2.15
		c0,0,15.07,22.22,30.47,24.54c15.4,2.32,26.72-2.16,36.21-7c29.02-7.52,51.96-13.47,70.09-18.17
		C1363.63,264.31,1340.98,266.59,1318.96,271.95z"/>
	<path class="st29" d="M1115.76,226.32l14.53-19.13c0,0-6.4,0.69-15.08-2.4c-14.35,10.28-30.52,16.27-30.52,16.27l0,0
		c-1.88,2.96-3.04,4.82-3.04,4.82s0.23,7.08,2.21,11.77L1115.76,226.32z"/>
	<path class="st31" d="M1196.64,279.38c0,0-6.85-7.81-14.79-7.7"/>
	<path class="st32" d="M1128.72,254.27c0.59-4.01,0.74-8.71,0.33-14.16c2.18,0.03,3.47,0.05,4.24,0.06
		c-0.46-10.25-6.14-9.93-6.14-9.93l-28.76,17.41c-0.22,2.39-0.25,4.94,0.12,7.41c0.27,1.76,0.79,3.62,1.53,5.45
		C1107.15,260.96,1121.44,260.91,1128.72,254.27z"/>
	<g>
		
			<ellipse transform="matrix(0.8403 -0.5422 0.5422 0.8403 25.9067 635.7682)" class="st33" cx="1091.97" cy="273.92" rx="27.32" ry="27.32"/>
		<g>
			<path class="st34" d="M1040.84,256.82l-19.9,36.74c-1.45,2.68-0.67,6.01,1.81,7.77c5.51,3.9,13.52,11.51,8.69,20.43l11.21,6.07
				l5.92-9.56l-4.77,10.18l11.21,6.07c4.83-8.92,15.58-6.36,21.86-3.88c2.83,1.12,6.05-0.05,7.5-2.72l19.9-36.74
				c1.47-2.72,1.06-6.07-1.01-8.38c-11.55-12.88-24.92-19.48-24.92-19.48s-12.83-7.59-29.93-10.23
				C1045.34,252.62,1042.31,254.1,1040.84,256.82z M1052.48,272.78c1.34-2.48,4.44-3.4,6.92-2.06l23.07,12.49
				c2.48,1.34,3.4,4.44,2.06,6.92c-1.34,2.48-4.44,3.4-6.92,2.06l-23.07-12.5C1052.06,278.36,1051.14,275.26,1052.48,272.78z"/>
			<path class="st35" d="M1043.79,261.73l-17.18,31.71c-1.25,2.31-0.58,5.19,1.57,6.71c4.75,3.36,11.67,9.93,7.5,17.63l9.67,5.24
				l0.5,0.27l0.5,0.27l9.67,5.24c4.17-7.7,13.45-5.49,18.86-3.35c2.44,0.97,5.22-0.04,6.47-2.35l17.18-31.71
				c1.27-2.35,0.91-5.24-0.87-7.23c-9.97-11.11-21.51-16.81-21.51-16.81s-11.08-6.55-25.83-8.83
				C1047.68,258.1,1045.06,259.38,1043.79,261.73z M1052.48,272.78c1.34-2.48,4.44-3.4,6.92-2.06l23.07,12.49
				c2.48,1.34,3.4,4.44,2.06,6.92c-1.34,2.48-4.44,3.4-6.92,2.06l-23.07-12.5C1052.06,278.36,1051.14,275.26,1052.48,272.78z"/>
			<path class="st36" d="M1051.68,262.93c12.95,2,22.66,7.75,22.66,7.75s10.12,5,18.87,14.75c1.57,1.75,1.88,4.28,0.76,6.34
				l-15.07,27.83c-1.1,2.03-3.53,2.91-5.68,2.06c-4.75-1.88-12.89-3.82-16.55,2.94l-8.49-4.6l-0.44-0.24l-0.44-0.24l-8.49-4.6
				c3.66-6.75-2.41-12.52-6.58-15.47c-1.88-1.33-2.47-3.86-1.37-5.88l15.07-27.83C1047.07,263.7,1049.37,262.57,1051.68,262.93z"/>
			<polygon class="st34" points="1056.59,325.7 1053.81,330.83 1045.56,346.07 1038.53,348.7 1037.64,350.36 1039.92,356.48 
				1033.54,357.91 1031.5,361.68 1033.79,367.8 1027.41,369.23 1026.09,371.68 1028.45,378.01 1021.86,379.49 1020.45,382.09 
				1021.75,385.59 1018.11,386.4 1017.29,387.92 1019.57,394.05 1013.2,395.48 1013.18,395.51 1015.47,401.63 1009.09,403.06 
				1009.08,403.07 998.87,405.38 995.13,391.59 1031.97,323.58 1036.66,314.91 			"/>
			<path class="st37" d="M1038.26,323.34c0.95,0.52,1.31,1.72,0.79,2.67l-41.12,75.92l-1.49-5.52l39.15-72.28
				C1036.1,323.18,1037.31,322.82,1038.26,323.34z"/>
			<g>
				
					<rect x="973.32" y="362.12" transform="matrix(0.4763 -0.8793 0.8793 0.4763 216.551 1088.5652)" class="st37" width="97.55" height="0.75"/>
			</g>
			
				<rect x="1029.23" y="317.21" transform="matrix(-0.8793 -0.4763 0.4763 -0.8793 1807.3378 1110.1783)" class="st37" width="30.22" height="17.74"/>
		</g>
		<g>
			<path class="st38" d="M1075.82,303.39c-2.08,19.3,11.88,36.63,31.18,38.71c19.3,2.08,36.63-11.88,38.71-31.18
				s-11.88-36.63-31.18-38.71C1095.23,270.13,1077.9,284.09,1075.82,303.39z M1094.19,283.8c5.49-3.94,12.4-5.95,19.65-5.17
				c7.25,0.78,13.57,4.22,18.1,9.23c1.35,1.49,1.26,3.79-0.13,5.24l0,0c-1.56,1.64-4.18,1.59-5.7-0.09
				c-3.27-3.64-7.85-6.13-13.1-6.7c-5.25-0.57-10.25,0.9-14.22,3.75c-1.84,1.32-4.41,0.8-5.59-1.13
				C1092.16,287.23,1092.56,284.97,1094.19,283.8z"/>
			<polygon class="st39" points="1117.9,337.4 1117.27,343.2 1115.42,360.43 1109.91,365.53 1109.71,367.4 1114.15,372.2 
				1108.79,375.94 1108.33,380.21 1112.77,385 1107.41,388.75 1107.12,391.51 1111.7,396.47 1106.17,400.34 1105.85,403.29 
				1108.38,406.03 1105.32,408.16 1105.14,409.88 1109.58,414.68 1104.22,418.42 1104.22,418.45 1108.66,423.25 1103.3,427 
				1103.3,427.01 1094.72,433.03 1086.03,421.68 1094.31,344.77 1095.36,334.98 			"/>
			<path class="st38" d="M1100.04,342.17c1.08,0.12,1.86,1.09,1.75,2.17l-9.24,85.85l-3.48-4.54l8.8-81.73
				C1097.99,342.84,1098.96,342.05,1100.04,342.17z"/>
			<g>
				<g>
					
						<rect x="1051.16" y="384.16" transform="matrix(0.1067 -0.9943 0.9943 0.1067 600.2609 1437.1681)" class="st38" width="97.55" height="0.75"/>
				</g>
			</g>
			
				<rect x="1091.6" y="333.52" transform="matrix(-0.9943 -0.107 0.107 -0.9943 2170.4075 801.2726)" class="st38" width="30.22" height="17.74"/>
			<path class="st39" d="M1079.52,303.87c-1.86,17.25,10.62,32.74,27.88,34.6s32.74-10.62,34.6-27.88
				c1.86-17.25-10.62-32.74-27.87-34.6C1096.87,274.14,1081.38,286.62,1079.52,303.87z M1094.19,283.8
				c5.49-3.94,12.4-5.95,19.65-5.17c7.25,0.78,13.57,4.22,18.1,9.23c1.35,1.49,1.26,3.79-0.13,5.24l0,0
				c-1.56,1.64-4.18,1.59-5.7-0.09c-3.27-3.64-7.85-6.13-13.1-6.7c-5.25-0.57-10.25,0.9-14.22,3.75c-1.84,1.32-4.41,0.8-5.59-1.13
				C1092.16,287.23,1092.56,284.97,1094.19,283.8z"/>
			<path class="st38" d="M1094.03,305.43c-0.99,9.24,5.69,17.54,14.93,18.53c9.24,0.99,17.54-5.69,18.53-14.93
				c0.99-9.24-5.69-17.54-14.93-18.53C1103.32,289.51,1095.02,296.19,1094.03,305.43z"/>
			<path class="st36" d="M1101.22,305.62c-0.57,5.3,3.27,10.07,8.57,10.64c5.3,0.57,10.07-3.27,10.64-8.57
				c0.57-5.3-3.27-10.07-8.57-10.64C1106.55,296.48,1101.79,300.32,1101.22,305.62z"/>
		</g>
		<path class="st33" d="M1065.61,281.15c2.89,10.51,11.94,18.7,23.43,19.93c12.8,1.38,24.49-6.32,28.64-17.93"/>
	</g>
	<path class="st31" d="M1204.35,267.23c0,0-5.19-7.65-10.68-7.12"/>
	<path class="st30" d="M1281.43,271.08c0,0,18.06-1.87,30.26-10.94c61.04-15.86,61.04-15.86,61.04-15.86"/>
	<g>
		<path class="st6" d="M1174.41,248.17l-44.35-3.44c0,0-32.94,18.08-51.1,7c-8.23-6.65-11.72-14.92-3.09-20.24
			c8.63-5.32,28.81-16.34,36.09-21.28c9.98-4.11,40.28-1.78,73.26-15.11c32.98-13.32,78.51,0.48,94.78,19.76
			c16.27,19.28,8.7,50.48-9.34,53.67c-18.04,3.19-36.88-1.05-63.18-7.68C1181.18,254.22,1174.41,248.17,1174.41,248.17z"/>
		<path class="st40" d="M1070.9,238.4L1070.9,238.4c3.25,11.97,10.86,11.97,18.74,8.22c7.88-3.75,6.51-13.46,5-18.82
			c-1.51-5.36-8.88-2.13-8.88-2.13l0,0c-3.88,2.23-7.38,4.27-9.9,5.82C1072.68,233.46,1071.15,235.84,1070.9,238.4z"/>
		<path class="st41" d="M1094.65,227.8c-0.42-1.49-1.29-2.32-2.33-2.73c-2.01,3.16-5.09,10.31,1.67,17.74
			C1096.83,238.25,1095.78,231.81,1094.65,227.8z"/>
		<path class="st15" d="M1173.44,225.43c-17.76,0.34-40.26-3.55-58.44,4.15c-18.15,7.69-41.75,16.02-41.83,16.05
			c1.41,2.1,3.4,4.17,5.79,6.1c18.16,11.09,51.1-7,51.1-7l44.35,3.44c0,0,6.76,6.05,33.06,12.68c26.3,6.63,45.14,10.88,63.18,7.68
			c9.34-1.65,15.87-10.8,17.74-21.92C1274.91,206.97,1191.2,225.09,1173.44,225.43z"/>
		<path class="st8" d="M1216.3,157.01c-18.03-10.11-26.62-16.52-42.68-8.82c-1.09,0.52-2.3,1.09-3.6,1.71l0,0
			c0,0,20.86-3.7,25.6,12.7c4.74,16.4,33.75,37.68,66.87,43.94c29.21,5.52,98.73-0.66,143.38-27.23l-18.93-27.91
			c0,0-60.53,34.66-87.74,36.1C1271.99,188.92,1234.33,167.12,1216.3,157.01z"/>
		<path class="st30" d="M1166.46,201.24c0,0,9.17-1.38,22.82-7.62"/>
		<path class="st42" d="M1114.27,214.17c0,0,4.44,21.18,8.66,18.63C1127.15,230.24,1119.22,216.42,1114.27,214.17z"/>
	</g>
	<path class="st43" d="M1319.84,161.78c-1.02,20.02-0.48,93.74,59.3,122.46c1.73,0.83,3.68,1.12,5.57,0.79l68.96-11.82
		c0,0-65.59-55.03-61.88-139.47c-41.33,11.09-59.31,17.55-66.74,20.66C1322.04,155.66,1320,158.52,1319.84,161.78z"/>
	<path class="st44" d="M1360.04,136.79c-0.65,26.74,2.75,124.62,84.78,154.15c2.46,0.89,5.13,1.01,7.67,0.37l268.53-67.84V-13.29
		l-354.55,140.85C1362.66,129.07,1360.14,132.71,1360.04,136.79z"/>
	<path class="st45" d="M1390,270.69c0,3.89-3.15,7.04-7.04,7.04c-3.89,0-7.04-3.15-7.04-7.04c0-3.89,3.15-7.04,7.04-7.04
		C1386.85,263.65,1390,266.81,1390,270.69z"/>
	<path class="st46" d="M1721.02,185.49c-21.68,4.7-70.17,14.1-168.18,28.89c-132.58,20-177.48-67.76-185.69-87.09l-0.69,0.28
		c-3.8,1.51-6.32,5.14-6.42,9.23c-0.65,26.74,2.75,124.62,84.78,154.15c2.46,0.89,5.13,1.01,7.67,0.37l268.53-67.84V185.49z"/>
	<path class="st30" d="M1249.76,269.27c0,0,14.33,2.54,26.1-2.55"/>
</g>
<g>
	<g>
		<circle class="st19" cx="1482.71" cy="510.14" r="2.22"/>
	</g>
	<g>
		<circle class="st19" cx="1482.71" cy="525.46" r="2.22"/>
	</g>
	<g>
		<circle class="st19" cx="1482.71" cy="540.77" r="2.22"/>
	</g>
	<g>
		<circle class="st19" cx="1482.71" cy="556.08" r="2.22"/>
	</g>
	<g>
		<circle class="st19" cx="1482.71" cy="571.4" r="2.22"/>
	</g>
	<g>
		<circle class="st19" cx="1468.6" cy="510.14" r="2.22"/>
	</g>
	<g>
		<circle class="st19" cx="1468.6" cy="525.46" r="2.22"/>
	</g>
	<g>
		<circle class="st19" cx="1468.6" cy="540.77" r="2.22"/>
	</g>
	<g>
		<circle class="st19" cx="1468.6" cy="556.08" r="2.22"/>
	</g>
	<g>
		<circle class="st19" cx="1468.6" cy="571.4" r="2.22"/>
	</g>
	<g>
		<circle class="st19" cx="1454.5" cy="510.14" r="2.22"/>
	</g>
	<g>
		<circle class="st19" cx="1454.5" cy="525.46" r="2.22"/>
	</g>
	<g>
		<circle class="st19" cx="1454.5" cy="540.77" r="2.22"/>
	</g>
	<g>
		<circle class="st19" cx="1454.5" cy="556.08" r="2.22"/>
	</g>
	<g>
		<circle class="st19" cx="1454.5" cy="571.4" r="2.22"/>
	</g>
	<g>
		<circle class="st19" cx="1440.4" cy="510.14" r="2.22"/>
	</g>
	<g>
		<circle class="st19" cx="1440.4" cy="525.46" r="2.22"/>
	</g>
	<g>
		<circle class="st19" cx="1440.4" cy="540.77" r="2.22"/>
	</g>
	<g>
		<circle class="st19" cx="1440.4" cy="556.08" r="2.22"/>
	</g>
	<g>
		<circle class="st19" cx="1440.4" cy="571.4" r="2.22"/>
	</g>
	<g>
		<circle class="st19" cx="1482.71" cy="586.71" r="2.22"/>
	</g>
	<g>
		<circle class="st19" cx="1468.6" cy="586.71" r="2.22"/>
	</g>
	<g>
		<circle class="st19" cx="1454.5" cy="586.71" r="2.22"/>
	</g>
	<g>
		<circle class="st19" cx="1440.4" cy="586.71" r="2.22"/>
	</g>
	<g>
		<circle class="st19" cx="1426.29" cy="510.14" r="2.22"/>
	</g>
	<g>
		<circle class="st19" cx="1426.29" cy="525.46" r="2.22"/>
	</g>
	<g>
		<circle class="st19" cx="1426.29" cy="540.77" r="2.22"/>
	</g>
	<g>
		<circle class="st19" cx="1426.29" cy="556.08" r="2.22"/>
	</g>
	<g>
		<circle class="st19" cx="1426.29" cy="571.4" r="2.22"/>
	</g>
	<g>
		<circle class="st19" cx="1426.29" cy="586.71" r="2.22"/>
	</g>
</g>
<g>
	<polygon class="st19" points="206.2,563.44 203.1,563.44 178.25,588.24 181.35,588.24 	"/>
	<polygon class="st19" points="194.18,563.44 191.08,563.44 166.23,588.24 169.33,588.24 	"/>
	<polygon class="st19" points="182.15,563.44 179.05,563.44 154.2,588.24 157.3,588.24 	"/>
	<polygon class="st19" points="170.13,563.44 167.03,563.44 142.18,588.24 145.28,588.24 	"/>
	<polygon class="st19" points="158.11,563.44 155.01,563.44 130.15,588.24 133.25,588.24 	"/>
	<polygon class="st19" points="146.08,563.44 142.98,563.44 128,578.39 128,581.49 	"/>
	<polygon class="st19" points="134.06,563.44 130.96,563.44 128,566.39 128,569.48 	"/>
	<polygon class="st19" points="218.51,586.71 218.51,583.62 213.87,588.24 216.97,588.24 	"/>
	<polygon class="st19" points="218.51,574.71 218.51,571.61 201.85,588.24 204.95,588.24 	"/>
	<polygon class="st19" points="217.78,563.44 214.68,563.44 189.83,588.24 192.93,588.24 	"/>
</g>
</svg>
